<mxfile host="drawio-plugin" modified="2023-04-10T02:20:49.588Z" agent="5.0 (Windows NT 6.2; Win64; x64) AppleWebKit/537.36 (KHTML, like Gecko) Chrome/89.0.4389.114 Safari/537.36" etag="27ZfwUejzhJbeNu4nx1F" version="15.5.4" type="embed"><diagram id="23iRSUPoRavnBvh4doch" name="Page-1"><mxGraphModel dx="2031" dy="-331" grid="1" gridSize="10" guides="1" tooltips="1" connect="1" arrows="1" fold="1" page="1" pageScale="1" pageWidth="827" pageHeight="1169" math="0" shadow="0"><root><mxCell id="0"/><mxCell id="1" parent="0"/><mxCell id="22" value="" style="endArrow=classic;html=1;rounded=0;exitX=0.5;exitY=1;exitDx=0;exitDy=0;" edge="1" parent="1" source="26"><mxGeometry width="50" height="50" relative="1" as="geometry"><mxPoint x="-450" y="1770" as="sourcePoint"/><mxPoint x="-455" y="2000" as="targetPoint"/></mxGeometry></mxCell><mxCell id="26" value="是否属于可预览文件" style="rhombus;whiteSpace=wrap;html=1;" vertex="1" parent="1"><mxGeometry x="-550" y="1630" width="190" height="140" as="geometry"/></mxCell><mxCell id="29" value="" style="endArrow=classic;html=1;rounded=0;" edge="1" parent="1"><mxGeometry width="50" height="50" relative="1" as="geometry"><mxPoint x="-455" y="1435" as="sourcePoint"/><mxPoint x="-455" y="1630" as="targetPoint"/></mxGeometry></mxCell><mxCell id="30" value="" style="endArrow=classic;html=1;rounded=0;entryX=0;entryY=0.5;entryDx=0;entryDy=0;entryPerimeter=0;exitX=1;exitY=0.5;exitDx=0;exitDy=0;" edge="1" parent="1" source="26" target="34"><mxGeometry width="50" height="50" relative="1" as="geometry"><mxPoint x="-350" y="1700" as="sourcePoint"/><mxPoint x="85" y="1500" as="targetPoint"/></mxGeometry></mxCell><mxCell id="31" value="是" style="text;html=1;strokeColor=none;fillColor=none;align=center;verticalAlign=middle;whiteSpace=wrap;rounded=0;" vertex="1" parent="1"><mxGeometry x="-460" y="1790" width="60" height="30" as="geometry"/></mxCell><mxCell id="32" value="否" style="text;html=1;strokeColor=none;fillColor=none;align=center;verticalAlign=middle;whiteSpace=wrap;rounded=0;" vertex="1" parent="1"><mxGeometry x="-350" y="1670" width="60" height="30" as="geometry"/></mxCell><mxCell id="34" value="" style="strokeWidth=2;html=1;shape=mxgraph.flowchart.terminator;whiteSpace=wrap;" vertex="1" parent="1"><mxGeometry x="-130" y="1670" width="100" height="60" as="geometry"/></mxCell><mxCell id="35" value="下载文件" style="text;html=1;strokeColor=none;fillColor=none;align=center;verticalAlign=middle;whiteSpace=wrap;rounded=0;" vertex="1" parent="1"><mxGeometry x="-110" y="1685" width="60" height="30" as="geometry"/></mxCell><mxCell id="40" value="" style="rounded=0;whiteSpace=wrap;html=1;" vertex="1" parent="1"><mxGeometry x="-560" y="2000" width="210" height="100" as="geometry"/></mxCell><mxCell id="42" value="预览xxx文件" style="text;html=1;strokeColor=none;fillColor=none;align=center;verticalAlign=middle;whiteSpace=wrap;rounded=0;" vertex="1" parent="1"><mxGeometry x="-497.5" y="2035" width="85" height="30" as="geometry"/></mxCell><mxCell id="44" value="" style="rounded=0;whiteSpace=wrap;html=1;" vertex="1" parent="1"><mxGeometry x="-560" y="1340" width="210" height="100" as="geometry"/></mxCell><mxCell id="45" value="xxx文件" style="text;html=1;strokeColor=none;fillColor=none;align=center;verticalAlign=middle;whiteSpace=wrap;rounded=0;" vertex="1" parent="1"><mxGeometry x="-485" y="1375" width="65" height="30" as="geometry"/></mxCell><mxCell id="46" value="点击预览按钮" style="text;html=1;strokeColor=none;fillColor=none;align=center;verticalAlign=middle;whiteSpace=wrap;rounded=0;" vertex="1" parent="1"><mxGeometry x="-450" y="1530" width="90" height="30" as="geometry"/></mxCell><mxCell id="50" value="打开新窗口预览文件" style="text;html=1;strokeColor=none;fillColor=none;align=center;verticalAlign=middle;whiteSpace=wrap;rounded=0;" vertex="1" parent="1"><mxGeometry x="-450" y="1940" width="133" height="30" as="geometry"/></mxCell></root></mxGraphModel></diagram></mxfile>